<?xml version="1.0" encoding="UTF-8"?>
<svg width="345px" height="324px" viewBox="0 0 345 324" version="1.1" xmlns="http://www.w3.org/2000/svg" xmlns:xlink="http://www.w3.org/1999/xlink">
    <!-- Generator: Sketch 52.2 (67145) - http://www.bohemiancoding.com/sketch -->
    <title>Group</title>
    <desc>Created with Sketch.</desc>
    <defs>
        <filter x="-39.9%" y="-45.3%" width="179.9%" height="190.7%" filterUnits="objectBoundingBox" id="filter-1">
            <feGaussianBlur stdDeviation="17" in="SourceGraphic"></feGaussianBlur>
        </filter>
        <filter x="-39.9%" y="-39.0%" width="179.9%" height="178.1%" filterUnits="objectBoundingBox" id="filter-2">
            <feGaussianBlur stdDeviation="17" in="SourceGraphic"></feGaussianBlur>
        </filter>
    </defs>
    <g id="Page-1" stroke="none" stroke-width="1" fill="none" fill-rule="evenodd">
        <g id="Artboard" transform="translate(-612.000000, -192.000000)">
            <g id="Group" transform="translate(646.000000, 221.000000)">
                <ellipse id="Oval" fill="#000000" cx="137" cy="140" rx="137" ry="140"></ellipse>
                <ellipse id="Oval" stroke="#979797" fill="#000000" cx="137" cy="140" rx="124.585761" ry="127.313916"></ellipse>
                <ellipse id="Oval" stroke="#979797" fill="#000000" cx="137.443366" cy="140.453074" rx="117.935275" ry="120.517799"></ellipse>
                <ellipse id="Oval" stroke="#979797" fill="#FFFFFF" cx="137" cy="140" rx="87.3430421" ry="89.2556634"></ellipse>
                <ellipse id="Oval" stroke="#000000" fill="#000000" cx="137.443366" cy="140.453074" rx="57.6375405" ry="58.8996764"></ellipse>
                <ellipse id="Oval" stroke="#979797" fill="#FFFFFF" cx="137" cy="140" rx="7.53721683" ry="7.70226537"></ellipse>
                <path d="M131.434187,146.672334 L61.2617256,259.158576 C31.2420476,238.77898 12.0661042,209.782216 3.73389519,172.168285" id="Path-2" fill="#FFFFFF" opacity="0.353678385" filter="url(#filter-1)"></path>
                <path d="M271.350777,6.34304207 L201.178316,136.952261 C171.158638,113.28925 151.982694,79.6207356 143.650485,35.9467173" id="Path-2" fill="#FFFFFF" opacity="0.391438802" filter="url(#filter-2)" transform="translate(207.500631, 71.647652) scale(-1, -1) translate(-207.500631, -71.647652) "></path>
            </g>
        </g>
    </g>
</svg>